<?xml version="1.0" encoding="UTF-8"?>
<svg id="Layer_2" data-name="Layer 2" xmlns="http://www.w3.org/2000/svg" viewBox="0 0 300 52">
  <defs>
    <style>
      .cls-1 {
        fill: #fff;
      }
    </style>
  </defs>
  <g id="Layer_1-2" data-name="Layer 1">
    <g>
      <polygon class="cls-1" points="126.12 14.71 126.12 9.68 149.57 9.68 149.57 0 113.53 0 113.53 14.71 126.12 14.71"/>
      <polygon class="cls-1" points="82.94 14.71 74.55 0 61.97 0 61.97 14.71 82.94 14.71"/>
      <polygon class="cls-1" points="166.65 14.71 163.95 0 151.43 0 154.58 14.71 166.65 14.71"/>
      <polygon class="cls-1" points="231.04 14.71 231.04 9.68 254.49 9.68 254.49 0 218.46 0 218.46 14.71 231.04 14.71"/>
      <path class="cls-1" d="m272.14,14.71v-5.06h6.17c2.82,0,4.86.48,6.13,1.45,1.04.79,1.64,2,1.83,3.61h12.61c0-.12.01-.23.01-.35,0-4.67-1.75-8.23-5.25-10.68-3.5-2.45-8.61-3.68-15.33-3.68h-18.75v14.71h12.59Z"/>
      <polygon class="cls-1" points="191.08 14.71 187.8 0 177.11 0 173.88 14.71 191.08 14.71"/>
      <rect class="cls-1" x="40.66" width="12.55" height="14.71"/>
      <polygon class="cls-1" points="210.41 14.71 213.54 0 201.06 0 198.36 14.71 210.41 14.71"/>
      <rect class="cls-1" x="93.02" width="12.55" height="14.71"/>
      <polygon class="cls-1" points="231.04 29.93 250.84 29.93 250.84 21.71 218.46 21.71 218.46 52 254.42 52 254.42 42.36 231.04 42.36 231.04 29.93"/>
      <polygon class="cls-1" points="126.12 29.93 145.91 29.93 145.91 21.71 113.53 21.71 113.53 52 149.5 52 149.5 42.36 126.12 42.36 126.12 29.93"/>
      <polygon class="cls-1" points="197.08 21.71 195.08 32.61 192.64 21.71 172.34 21.71 169.94 32.61 167.94 21.71 156.07 21.71 162.55 52 175.57 52 182.42 22.36 189.41 52 202.46 52 208.92 21.71 197.08 21.71"/>
      <path class="cls-1" d="m291.54,25.46c2.21-.83,3.9-2.09,5.13-3.76h-37.12v30.29h21.19c6.36-.05,11.16-1.35,14.4-3.91,3.24-2.56,4.86-6.39,4.86-11.48,0-2.81-.73-5.19-2.19-7.14-1.46-1.95-3.55-3.29-6.28-4Zm-5.92,15.34c-1.22,1.04-2.96,1.55-5.24,1.55h-8.25v-12.46h8.82c4.33.02,6.49,2.2,6.49,6.54,0,1.88-.61,3.34-1.83,4.38Z"/>
      <polygon class="cls-1" points="93.02 21.71 93.02 32.36 86.94 21.71 75.73 21.71 93.06 52 105.57 52 105.57 21.71 93.02 21.71"/>
      <polygon class="cls-1" points="12.59 21.71 0 21.71 0 52 34.5 52 34.5 42.36 12.59 42.36 12.59 21.71"/>
      <rect class="cls-1" width="12.59" height="14.71"/>
      <rect class="cls-1" x="40.66" y="21.71" width="12.55" height="30.29"/>
      <rect class="cls-1" x="61.97" y="21.71" width="12.59" height="30.29"/>
    </g>
  </g>
</svg>